<svg xmlns="http://www.w3.org/2000/svg" viewBox="0 0 892.913 248.386"><defs><clipPath id="b"><path d="M469.314 136.97h140.544V76.085H469.314v60.885z"/></clipPath><clipPath id="a"><path d="M469.314 136.97h140.544V76.085H469.314v60.885z"/></clipPath></defs><g clip-path="url(#a)" transform="matrix(6.31583 0 0 -6.31583 -2962.39 868.624)"><path d="M495.21 103.04c-.65 1.32-1.417 3-2.128 4.874-1.69 4.458-2.417 8.314-2.417 8.314s2.01-3.37 3.7-7.828c.517-1.36.942-2.664 1.285-3.82v28.36c0 .946-.773 1.72-1.718 1.72h-22.61c-.946 0-1.72-.774-1.72-1.72v-2.017h15.442v-.005c3.94 0 7.136-3.194 7.136-7.135 0-3.94-3.195-7.135-7.136-7.135v-.005h-15.44v-12.466c0-.945.772-1.72 1.717-1.72l11.58.036c1.076-2.266 1.947-3.728 1.947-3.728s-.284 1.51-.91 3.73l1.342.005c-.702 1.387-1.587 3.272-2.4 5.414-1.69 4.458-2.416 8.314-2.416 8.314s2.01-3.37 3.7-7.828c.86-2.264 1.468-4.37 1.86-5.898h.272c1.078-2.27 1.95-3.737 1.95-3.737s-.284 1.514-.913 3.74l1.34.006c-.7 1.387-1.58 3.267-2.392 5.404-1.688 4.458-2.416 8.314-2.416 8.314s2.012-3.37 3.702-7.828c.856-2.26 1.464-4.36 1.857-5.887h.268c1.082-2.277 1.958-3.748 1.958-3.748s-.287 1.52-.918 3.752l1.34.005c-.7 1.384-1.58 3.26-2.388 5.392-1.69 4.458-2.418 8.314-2.418 8.314s2.012-3.37 3.702-7.828c.854-2.253 1.46-4.35 1.854-5.876h.266c1.083-2.283 1.962-3.76 1.962-3.76s-.288 1.525-.92 3.764c.188 0 .29 0 .29.002.31.093.582.274.792.51" fill="#dad9d9"/><path d="M496.272 136.974h-22.61c-.946 0-1.72-.774-1.72-1.72v-2.016h15.443v-.005c3.94 0 7.134-3.195 7.134-7.136 0-3.94-3.195-7.135-7.135-7.135v-.005h-15.443V106.49c0-.944.774-1.718 1.72-1.718l10.096.03c1.075-2.262 1.946-3.723 1.946-3.723s-.19 1.008-.602 2.59c-.67 1.346-1.476 3.096-2.22 5.058-1.69 4.458-2.417 8.315-2.417 8.315s2.012-3.37 3.7-7.83c.607-1.595 1.086-3.11 1.456-4.404.513 0 1.028.002 1.534.004 1.078-2.27 1.95-3.735 1.95-3.735s-.19 1.008-.603 2.59c-.668 1.346-1.474 3.097-2.217 5.058-1.69 4.458-2.418 8.315-2.418 8.315s2.012-3.37 3.702-7.83c.603-1.592 1.082-3.103 1.45-4.394.523 0 1.038.003 1.532.004 1.08-2.275 1.954-3.745 1.954-3.745s-.19 1.008-.603 2.59c-.668 1.346-1.474 3.097-2.218 5.058-1.69 4.458-2.417 8.315-2.417 8.315s2.012-3.37 3.702-7.83c.602-1.587 1.08-3.095 1.448-4.383.548 0 1.062.003 1.53.004 1.08-2.28 1.96-3.755 1.96-3.755s-.19 1.008-.603 2.59c-.67 1.346-1.475 3.096-2.22 5.058-1.69 4.458-2.416 8.315-2.416 8.315s2.01-3.37 3.7-7.83c.6-1.582 1.078-3.086 1.446-4.372l.946.005c.71.21 1.232.87 1.232 1.646v28.765c0 .945-.773 1.72-1.718 1.72" fill="#00a363"/></g><path d="M285.027 76.013c15.48-1.54 25.706-12.19 25.706-24.973 0-8.52-5.11-16.927-14.06-21.304-8.52-4.023-18.75-4.143-28.263-4.143h-16.194v89.243h13.352V77.08h5.54l31.528 37.756h16.194l-33.803-38.823zm-19.46-40.48h3.55c13.213 0 29.117 2.016 29.117 15.98 0 14.205-14.773 16.333-28.41 16.333h-4.256M399.217 23.7c-30.676 0-56.103 20.948-56.103 46.515 0 26.513 25.143 46.516 56.103 46.516 30.967 0 56.104-20.002 56.104-46.515 0-25.567-25.42-46.516-56.103-46.516m0 82.616c-23.147 0-42.75-15.745-42.75-36.1 0-19.65 17.613-36.103 42.75-36.103 25.144 0 42.752 16.453 42.752 36.102 0 20.356-19.6 36.1-42.753 36.1M587.126 69.86v3.55c0 24.5-20.735 43.32-50.703 43.32-29.97 0-54.115-21.543-54.115-46.282 0-25.68 24.714-46.75 55.536-46.75 16.617 0 33.088 6.272 43.598 17.28l-9.373 7.46c-7.668-8.76-20.597-14.558-33.658-14.558-24.006 0-42.752 16.212-42.752 36.215 0 18.7 18.46 36.455 41.615 36.455 16.617 0 34.51-11.956 35.078-26.514h-27.695V69.86M628.74 25.593h57.526v10.175h-44.173v24.98h42.89V70.92h-42.89v33.733h44.173v10.18H628.74" fill="#231f20"/><g clip-path="url(#b)" fill="#231f20" transform="matrix(6.31583 0 0 -6.31583 -2962.39 868.624)"><path d="M590 125.496c2.452.244 4.07 1.93 4.07 3.954 0 1.35-.808 2.68-2.225 3.373-1.35.637-2.97.656-4.475.656h-2.564v-14.13h2.114v5.977h.877l4.992-5.978h2.563L590 125.495zm-3.08 6.41h.562c2.09 0 4.61-.32 4.61-2.53 0-2.25-2.338-2.587-4.497-2.587h-.675M607.924 130.8c-.63.88-1.44 1.33-2.72 1.33-1.35 0-2.835-.768-2.835-2.005 0-1.106 1.304-1.687 2.36-2.024l1.215-.393c2.406-.787 4.205-1.893 4.205-4.254 0-2.567-2.384-4.404-5.42-4.404-2.743 0-4.88 1.686-5.24 3.953l2.137.375c-.022-1.555 1.462-2.68 3.284-2.68 1.822 0 3.127 1.275 3.127 2.755 0 1.518-1.462 2.174-2.924 2.68l-1.17.412c-1.933.694-3.688 1.612-3.688 3.58 0 2.286 2.43 3.654 4.993 3.654 1.89 0 3.44-.77 4.363-2.137"/></g><path d="M286.46 150.767c-3.334-2.47-7.907-3.81-12.29-3.81-10.433 0-18.404 7.258-18.404 15.854 0 8.496 7.907 15.746 18.278 15.746 4.573 0 8.956-1.44 12.417-4.01v5.71c-3.58 1.75-8.153 2.728-12.227 2.728-13.275 0-24.27-8.798-24.27-20.015 0-11.477 11.05-20.433 24.763-20.433 4.074 0 8.217.82 11.735 2.628M336.236 142.537c-13.34 0-24.398 9.108-24.398 20.223 0 11.527 10.933 20.224 24.398 20.224 13.46 0 24.392-8.697 24.392-20.224 0-11.115-11.053-20.223-24.392-20.223m0 35.918c-10.067 0-18.594-6.84-18.594-15.695 0-8.545 7.66-15.694 18.594-15.694 10.926 0 18.58 7.15 18.58 15.694 0 8.855-8.52 15.695-18.58 15.695M402.25 165.28c6.725-.67 11.172-5.298 11.172-10.856 0-3.708-2.223-7.358-6.114-9.26-3.7-1.755-8.147-1.806-12.284-1.806h-7.042v38.805h5.804v-16.415h2.406l13.712 16.415h7.042L402.25 165.28zm-8.464-17.595h1.547c5.74 0 12.657.87 12.657 6.94 0 6.184-6.423 7.106-12.354 7.106h-1.85M449.056 165.9h3.334c8.83 0 16.302-3.14 16.302-11.32 0-7.104-4.447-11.222-18.77-11.222h-6.677v38.805h5.81V165.9zm0-18.215h1.54c5.742 0 12.664.713 12.664 6.79 0 6.176-6.423 7.104-12.354 7.104h-1.85M516.673 142.537c-13.34 0-24.392 9.108-24.392 20.223 0 11.527 10.928 20.224 24.393 20.224s24.398-8.697 24.398-20.224c0-11.115-11.058-20.223-24.397-20.223m0 35.918c-10.068 0-18.588-6.84-18.588-15.695 0-8.545 7.655-15.694 18.588-15.694s18.587 7.15 18.587 15.694c0 8.855-8.52 15.695-18.587 15.695M582.686 165.28c6.733-.67 11.18-5.298 11.18-10.856 0-3.708-2.224-7.358-6.115-9.26-3.706-1.755-8.146-1.806-12.29-1.806h-7.035v38.805h5.804v-16.415h2.405l13.712 16.415h7.042l-14.704-16.882zm-8.457-17.595h1.54c5.748 0 12.657.87 12.657 6.94 0 6.184-6.417 7.106-12.347 7.106h-1.85M651.667 172.436l5.306 9.727h6.24L640.98 141.71l-22.23 40.453h6.24l5.31-9.727h21.367zm-2.412-4.427h-16.548l8.274-15.696M696.447 182.163h-5.805v-34.377H679.59v-4.428h27.91v4.428h-11.053" fill="#231f20"/><path d="M736.52 182.163v-38.805" fill="none" stroke="#231f20" stroke-width="5.805506340000001" stroke-miterlimit="10"/><path d="M790.988 142.537c-13.34 0-24.39 9.108-24.39 20.223 0 11.527 10.925 20.224 24.39 20.224 13.46 0 24.392-8.697 24.392-20.224 0-11.115-11.053-20.223-24.392-20.223m0 35.918c-10.06 0-18.587-6.84-18.587-15.695 0-8.545 7.662-15.694 18.588-15.694 10.933 0 18.588 7.15 18.588 15.694 0 8.855-8.52 15.695-18.588 15.695M842.178 141.508l34.958 30.512v-28.662h5.805v40.396l-34.95-30.518v28.927h-5.812" fill="#231f20"/></svg>
