<svg
   xmlns:dc="http://purl.org/dc/elements/1.1/"
   xmlns:cc="http://creativecommons.org/ns#"
   xmlns:rdf="http://www.w3.org/1999/02/22-rdf-syntax-ns#"
   xmlns:svg="http://www.w3.org/2000/svg"
   xmlns="http://www.w3.org/2000/svg"
   version="1.1"
   width="892.91339"
   height="248.38582"
   id="svg4404">
  <defs
     id="defs4406">
    <clipPath
       id="clipPath4307">
      <path
         d="m 469.314,136.97 140.544,0 0,-60.885 -140.544,0 0,60.885 z"
         id="path4309" />
    </clipPath>
    <clipPath
       id="clipPath4287">
      <path
         d="m 469.314,136.97 140.544,0 0,-60.885 -140.544,0 0,60.885 z"
         id="path4289" />
    </clipPath>
  </defs>
  <metadata
     id="metadata4409">
    <rdf:RDF>
      <cc:Work
         rdf:about="">
        <dc:format>image/svg+xml</dc:format>
        <dc:type
           rdf:resource="http://purl.org/dc/dcmitype/StillImage" />
        <dc:title></dc:title>
      </cc:Work>
    </rdf:RDF>
  </metadata>
  <g
     transform="translate(77.191694,-468.02784)"
     id="layer1">
    <g
       transform="matrix(5.0526642,0,0,5.0526642,-1157.9231,-1313.6308)"
       id="g4471">
      <g
         transform="matrix(1.25,0,0,-1.25,-372.4091,524.53172)"
         id="g4283">
        <g
           clip-path="url(#clipPath4287)"
           id="g4285">
          <path
             d="m 495.21,103.04 c -0.651,1.32 -1.417,2.999 -2.128,4.874 -1.69,4.458 -2.417,8.314 -2.417,8.314 0,0 2.011,-3.37 3.701,-7.828 0.516,-1.361 0.941,-2.664 1.284,-3.821 l 0,28.362 c 0,0.945 -0.773,1.718 -1.718,1.718 l -22.611,0 c -0.945,0 -1.718,-0.773 -1.718,-1.718 l 0,-2.018 15.441,0 0,-0.005 c 3.941,0 7.136,-3.194 7.136,-7.135 0,-3.941 -3.195,-7.135 -7.136,-7.135 l 0,-0.005 -15.441,0 0,-12.466 c 0,-0.945 0.773,-1.719 1.718,-1.719 0,0 5.795,0.017 11.579,0.035 1.076,-2.266 1.947,-3.728 1.947,-3.728 0,0 -0.284,1.509 -0.911,3.731 0.451,0.001 0.899,0.003 1.343,0.004 -0.701,1.387 -1.586,3.272 -2.398,5.414 -1.69,4.458 -2.417,8.314 -2.417,8.314 0,0 2.011,-3.37 3.701,-7.828 0.858,-2.264 1.467,-4.37 1.86,-5.898 0.09,0.001 0.181,0.001 0.271,0.001 1.078,-2.271 1.951,-3.738 1.951,-3.738 0,0 -0.285,1.514 -0.914,3.741 0.461,0.002 0.907,0.003 1.341,0.005 -0.7,1.386 -1.582,3.266 -2.393,5.403 -1.689,4.458 -2.417,8.314 -2.417,8.314 0,0 2.012,-3.37 3.702,-7.828 0.856,-2.259 1.464,-4.36 1.857,-5.887 0.087,0 0.181,0 0.268,10e-4 1.081,-2.278 1.957,-3.749 1.957,-3.749 0,0 -0.287,1.519 -0.918,3.752 0.485,0.002 0.933,0.003 1.339,0.005 -0.7,1.384 -1.58,3.261 -2.387,5.392 -1.69,4.458 -2.418,8.314 -2.418,8.314 0,0 2.012,-3.37 3.702,-7.828 0.854,-2.253 1.461,-4.35 1.854,-5.876 0.089,0 0.183,0 0.266,0.001 1.083,-2.284 1.962,-3.76 1.962,-3.76 0,0 -0.288,1.524 -0.921,3.763 0.189,10e-4 0.292,10e-4 0.292,0.002 0.31,0.093 0.581,0.274 0.791,0.51"
             id="path4291"
             style="fill:#dad9d9;fill-opacity:1;fill-rule:nonzero;stroke:none" />
          <path
             d="m 496.272,136.974 -22.611,0 c -0.945,0 -1.719,-0.774 -1.719,-1.719 l 0,-2.017 15.443,0 0,-0.005 c 3.94,0 7.134,-3.195 7.134,-7.136 0,-3.941 -3.194,-7.135 -7.134,-7.135 l 0,-0.005 -15.443,0 0,-12.466 c 0,-0.945 0.774,-1.719 1.719,-1.719 0,0 4.845,0.015 10.097,0.031 1.075,-2.263 1.946,-3.724 1.946,-3.724 0,0 -0.191,1.009 -0.602,2.59 -0.67,1.347 -1.476,3.097 -2.22,5.059 -1.69,4.458 -2.417,8.315 -2.417,8.315 0,0 2.012,-3.371 3.701,-7.829 0.606,-1.596 1.085,-3.112 1.455,-4.405 0.512,0.001 1.027,0.003 1.533,0.005 1.078,-2.27 1.95,-3.735 1.95,-3.735 0,0 -0.19,1.009 -0.603,2.591 -0.669,1.346 -1.475,3.097 -2.218,5.058 -1.69,4.458 -2.418,8.315 -2.418,8.315 0,0 2.012,-3.371 3.702,-7.829 0.603,-1.593 1.082,-3.104 1.451,-4.395 0.522,0.002 1.037,0.004 1.531,0.005 1.08,-2.275 1.955,-3.745 1.955,-3.745 0,0 -0.19,1.009 -0.603,2.591 -0.669,1.346 -1.475,3.097 -2.219,5.058 -1.689,4.458 -2.417,8.315 -2.417,8.315 0,0 2.012,-3.371 3.702,-7.829 0.602,-1.588 1.079,-3.096 1.448,-4.384 0.548,0.001 1.062,0.003 1.529,0.004 1.082,-2.281 1.96,-3.755 1.96,-3.755 0,0 -0.19,1.009 -0.602,2.591 -0.669,1.346 -1.475,3.096 -2.219,5.058 -1.69,4.458 -2.417,8.315 -2.417,8.315 0,0 2.011,-3.371 3.701,-7.829 0.6,-1.583 1.077,-3.087 1.445,-4.373 0.6,0.002 0.947,0.004 0.946,0.004 0.71,0.21 1.232,0.871 1.232,1.646 l 0,28.764 c 0,0.945 -0.773,1.719 -1.718,1.719"
             id="path4293"
             style="fill:#00a363;fill-opacity:1;fill-rule:nonzero;stroke:none" />
        </g>
      </g>
      <path
         d="m 270.30465,367.66172 c 3.06375,-0.305 5.0875,-2.4125 5.0875,-4.9425 0,-1.68625 -1.01125,-3.35 -2.7825,-4.21625 -1.68625,-0.79625 -3.71125,-0.82 -5.59375,-0.82 l -3.205,0 0,17.6625 2.6425,0 0,-7.4725 1.09625,0 6.24,7.4725 3.205,0 -6.69,-7.68375 z m -3.85125,-8.01125 0.7025,0 c 2.615,0 5.7625,0.39875 5.7625,3.1625 0,2.81125 -2.92375,3.2325 -5.6225,3.2325 l -0.8425,0"
         id="path4295"
         style="fill:#231f20;fill-opacity:1;fill-rule:nonzero;stroke:none" />
      <path
         d="m 292.90465,357.30797 c -6.07125,0 -11.10375,4.14625 -11.10375,9.20625 0,5.2475 4.97625,9.20625 11.10375,9.20625 6.12875,0 11.10375,-3.95875 11.10375,-9.20625 0,-5.06 -5.03125,-9.20625 -11.10375,-9.20625 m 0,16.35125 c -4.58125,0 -8.46125,-3.11625 -8.46125,-7.145 0,-3.88875 3.48625,-7.145 8.46125,-7.145 4.97625,0 8.46125,3.25625 8.46125,7.145 0,4.02875 -3.87875,7.145 -8.46125,7.145"
         id="path4297"
         style="fill:#231f20;fill-opacity:1;fill-rule:nonzero;stroke:none" />
      <path
         d="m 330.09465,366.44422 0,0.7025 c 0,4.84875 -4.10375,8.57375 -10.035,8.57375 -5.93125,0 -10.71,-4.26375 -10.71,-9.16 0,-5.0825 4.89125,-9.2525 10.99125,-9.2525 3.28875,0 6.54875,1.24125 8.62875,3.42 l -1.855,1.47625 c -1.5175,-1.73375 -4.07625,-2.88125 -6.66125,-2.88125 -4.75125,0 -8.46125,3.20875 -8.46125,7.1675 0,3.70125 3.65375,7.215 8.23625,7.215 3.28875,0 6.83,-2.36625 6.9425,-5.2475 l -5.48125,0 0,-2.01375"
         id="path4299"
         style="fill:#231f20;fill-opacity:1;fill-rule:nonzero;stroke:none" />
      <path
         d="m 338.3309,357.68297 11.385,0 0,2.01375 -8.7425,0 0,4.94375 8.48875,0 0,2.01375 -8.48875,0 0,6.67625 8.7425,0 0,2.015 -11.385,0"
         id="path4301"
         style="fill:#231f20;fill-opacity:1;fill-rule:nonzero;stroke:none" />
      <g
         transform="matrix(1.25,0,0,-1.25,-372.4091,524.53172)"
         id="g4303">
        <g
           clip-path="url(#clipPath4307)"
           id="g4305">
          <path
             d="m 590.001,125.496 c 2.451,0.244 4.07,1.93 4.07,3.954 0,1.349 -0.809,2.68 -2.226,3.373 -1.349,0.637 -2.969,0.656 -4.475,0.656 l -2.564,0 0,-14.13 2.114,0 0,5.978 0.877,0 4.992,-5.978 2.564,0 -5.352,6.147 z m -3.081,6.409 0.562,0 c 2.091,0 4.61,-0.319 4.61,-2.53 0,-2.249 -2.338,-2.586 -4.497,-2.586 l -0.675,0"
             id="path4311"
             style="fill:#231f20;fill-opacity:1;fill-rule:nonzero;stroke:none" />
          <path
             d="m 607.924,130.799 c -0.63,0.881 -1.439,1.331 -2.721,1.331 -1.349,0 -2.834,-0.768 -2.834,-2.005 0,-1.106 1.305,-1.687 2.362,-2.024 l 1.214,-0.394 c 2.406,-0.787 4.205,-1.893 4.205,-4.254 0,-2.567 -2.384,-4.404 -5.419,-4.404 -2.744,0 -4.88,1.687 -5.24,3.954 l 2.136,0.375 c -0.022,-1.555 1.462,-2.68 3.284,-2.68 1.821,0 3.126,1.275 3.126,2.755 0,1.518 -1.462,2.174 -2.924,2.68 l -1.169,0.412 c -1.934,0.694 -3.689,1.612 -3.689,3.58 0,2.286 2.429,3.654 4.993,3.654 1.889,0 3.44,-0.768 4.363,-2.136"
             id="path4313"
             style="fill:#231f20;fill-opacity:1;fill-rule:nonzero;stroke:none" />
        </g>
      </g>
      <path
         d="m 270.5884,382.45672 c -0.66,-0.48875 -1.565,-0.75375 -2.4325,-0.75375 -2.065,0 -3.6425,1.43625 -3.6425,3.1375 0,1.68125 1.565,3.11625 3.6175,3.11625 0.905,0 1.7725,-0.285 2.4575,-0.79375 l 0,1.13 c -0.70875,0.34625 -1.61375,0.54 -2.42,0.54 -2.6275,0 -4.80375,-1.74125 -4.80375,-3.96125 0,-2.27125 2.1875,-4.04375 4.90125,-4.04375 0.80625,0 1.62625,0.1625 2.3225,0.52"
         id="path4315"
         style="fill:#231f20;fill-opacity:1;fill-rule:nonzero;stroke:none" />
      <path
         d="m 280.43965,380.82797 c -2.64,0 -4.82875,1.8025 -4.82875,4.0025 0,2.28125 2.16375,4.0025 4.82875,4.0025 2.66375,0 4.8275,-1.72125 4.8275,-4.0025 0,-2.2 -2.1875,-4.0025 -4.8275,-4.0025 m 0,7.10875 c -1.9925,0 -3.68,-1.35375 -3.68,-3.10625 0,-1.69125 1.51625,-3.10625 3.68,-3.10625 2.1625,0 3.6775,1.415 3.6775,3.10625 0,1.7525 -1.68625,3.10625 -3.6775,3.10625"
         id="path4317"
         style="fill:#231f20;fill-opacity:1;fill-rule:nonzero;stroke:none" />
      <path
         d="m 293.50465,385.32922 c 1.33125,-0.1325 2.21125,-1.04875 2.21125,-2.14875 0,-0.73375 -0.44,-1.45625 -1.21,-1.8325 -0.7325,-0.3475 -1.6125,-0.3575 -2.43125,-0.3575 l -1.39375,0 0,7.68 1.14875,0 0,-3.24875 0.47625,0 2.71375,3.24875 1.39375,0 -2.90875,-3.34125 z m -1.675,-3.4825 0.30625,0 c 1.13625,0 2.505,0.1725 2.505,1.37375 0,1.22375 -1.27125,1.40625 -2.445,1.40625 l -0.36625,0"
         id="path4319"
         style="fill:#231f20;fill-opacity:1;fill-rule:nonzero;stroke:none" />
      <path
         d="m 302.7684,385.45172 0.66,0 c 1.7475,0 3.22625,-0.62125 3.22625,-2.24 0,-1.40625 -0.88,-2.22125 -3.715,-2.22125 l -1.32125,0 0,7.68 1.15,0 0,-3.21875 z m 0,-3.605 0.305,0 c 1.13625,0 2.50625,0.14125 2.50625,1.34375 0,1.2225 -1.27125,1.40625 -2.445,1.40625 l -0.36625,0"
         id="path4321"
         style="fill:#231f20;fill-opacity:1;fill-rule:nonzero;stroke:none" />
      <path
         d="m 316.1509,380.82797 c -2.64,0 -4.8275,1.8025 -4.8275,4.0025 0,2.28125 2.1625,4.0025 4.8275,4.0025 2.665,0 4.82875,-1.72125 4.82875,-4.0025 0,-2.2 -2.18875,-4.0025 -4.82875,-4.0025 m 0,7.10875 c -1.9925,0 -3.67875,-1.35375 -3.67875,-3.10625 0,-1.69125 1.515,-3.10625 3.67875,-3.10625 2.16375,0 3.67875,1.415 3.67875,3.10625 0,1.7525 -1.68625,3.10625 -3.67875,3.10625"
         id="path4323"
         style="fill:#231f20;fill-opacity:1;fill-rule:nonzero;stroke:none" />
      <path
         d="m 329.2159,385.32922 c 1.3325,-0.1325 2.2125,-1.04875 2.2125,-2.14875 0,-0.73375 -0.44,-1.45625 -1.21,-1.8325 -0.73375,-0.3475 -1.6125,-0.3575 -2.4325,-0.3575 l -1.3925,0 0,7.68 1.14875,0 0,-3.24875 0.47625,0 2.71375,3.24875 1.39375,0 -2.91,-3.34125 z m -1.67375,-3.4825 0.305,0 c 1.1375,0 2.505,0.1725 2.505,1.37375 0,1.22375 -1.27,1.40625 -2.44375,1.40625 l -0.36625,0"
         id="path4325"
         style="fill:#231f20;fill-opacity:1;fill-rule:nonzero;stroke:none" />
      <path
         d="m 342.8684,386.74547 1.05,1.925 1.235,0 -4.4,-8.00625 -4.4,8.00625 1.235,0 1.05125,-1.925 4.22875,0 z m -0.4775,-0.87625 -3.275,0 1.6375,-3.10625"
         id="path4327"
         style="fill:#231f20;fill-opacity:1;fill-rule:nonzero;stroke:none" />
      <path
         d="m 351.7309,388.67047 -1.14875,0 0,-6.80375 -2.1875,0 0,-0.87625 5.52375,0 0,0.87625 -2.1875,0"
         id="path4329"
         style="fill:#231f20;fill-opacity:1;fill-rule:nonzero;stroke:none" />
      <path
         d="m 359.66215,388.67047 0,-7.68"
         id="path4331"
         style="fill:none;stroke:#231f20;stroke-width:1.14875007;stroke-linecap:butt;stroke-linejoin:miter;stroke-miterlimit:10;stroke-opacity:1;stroke-dasharray:none" />
      <path
         d="m 370.44215,380.82797 c -2.64,0 -4.8275,1.8025 -4.8275,4.0025 0,2.28125 2.1625,4.0025 4.8275,4.0025 2.66375,0 4.8275,-1.72125 4.8275,-4.0025 0,-2.2 -2.1875,-4.0025 -4.8275,-4.0025 m 0,7.10875 c -1.99125,0 -3.67875,-1.35375 -3.67875,-3.10625 0,-1.69125 1.51625,-3.10625 3.67875,-3.10625 2.16375,0 3.67875,1.415 3.67875,3.10625 0,1.7525 -1.68625,3.10625 -3.67875,3.10625"
         id="path4333"
         style="fill:#231f20;fill-opacity:1;fill-rule:nonzero;stroke:none" />
      <path
         d="m 380.5734,380.62422 6.91875,6.03875 0,-5.6725 1.14875,0 0,7.995 -6.9175,-6.04 0,5.725 -1.15,0"
         id="path4335"
         style="fill:#231f20;fill-opacity:1;fill-rule:nonzero;stroke:none" />
    </g>
  </g>
</svg>
