<svg xmlns="http://www.w3.org/2000/svg" version="1" viewBox="0 0 116.68 93.25"><path d="M112.332 91.966h3.225V69.69h-3.225v22.276z" fill="#444492"/><path d="M76.932 72.616l-1.575.15-1.65.525c-7.15 3.21-6.052 14.082 1.65 15.75l1.575.15 1.65-.15c8.04-1.573 8.536-13.16 1.575-15.75l-1.575-.524-1.65-.15zm0-3.075h1.35l1.125.15c12.565 3.237 11.543 20.84-1.35 22.426h-2.25c-12.882-1.896-13.88-19.17-1.125-22.425l1.125-.15h1.125M8.457 72.316h-.825l-.6.15-.675.3-.675.525-.3.45-.3.676-.15.6v.825l.15.45.15.676.45.525.525.3 1.425.6 4.5 1.65.975.45.675.526.825.975.6.976c3.105 8.82-9.7 12.938-13.725 5.325l-.45-1.35-.15-1.424h3.075l.15.975.3.826.525.6.45.675.675.3.6.3.825.226h1.65l.6-.225.825-.3.675-.3c1.665-1.943 1.9-4.19-.525-5.624l-1.275-.675-1.8-.45-1.95-.674-1.425-.825-1.125-.824-.825-.9-.45-1.35-.225-1.425.225-1.274.3-1.275.675-1.124.75-.825.975-.824c2.844-1.922 6.93-1.334 9.225 1.425l.825.976.45 1.275.15 1.35h-3.225l-.15-.824c-.285-1.275-1.456-2.166-2.7-2.4h-.675M95.982 69.69h10.5v3.076h-9.525v7.125h9.525v3.076h-9.525v9h-3.225V71.94l.15-.974.525-.6.675-.525.9-.15M46.257 74.866v17.1h-3.225V71.79l.15-.974.525-.6.6-.525.975-.15h.525l.6.3.3.376.525.45 9.675 16.125.15-17.1h3.225v20.176l-.15.975-.45.676-.825.45-.825.15h-.6l-.525-.15-.45-.3-.375-.525-9.825-16.274M28.332 73.89l-3.225 8.85h6.6l-3.375-8.85zm-4.35 11.776l-2.25 6.3h-3.45l7.95-21 .3-.6.525-.525.6-.15.675-.15.675.15.6.15.525.526.3.6 7.875 21h-3.375l-2.25-6.3h-8.7" fill="#444492" fill-rule="evenodd"/><path d="M85.857 21.016l-1.8-2.25-.825-.975-.975-.824c-4.192-3.62-9.847-2.7-14.7-1.125l-3.825 1.126-1.95.525c-5.28 1.076-10.82.49-12.975-5.174l-.3-1.5-.15-1.425.3-1.424.525-1.5c2.008-5.004 9.613-6.27 14.325-4.95l2.325.45 2.1.675c6.434 2.122 11.546 6.54 15.15 12.226l1.125 1.95 1.65 4.2" fill="#bca36a"/><path d="M86.157 21.84l.3 1.726.525 1.95c1.218 9.67-2.467 19.855-10.2 25.95l-2.25 1.8-2.25 1.275c-8.53 4.806-19.55 4.677-27.975-.3l-1.95-1.274-1.95-1.5 1.5.525 1.575.3c7.676 1.202 14.196-.993 18.75-7.424l1.8-2.925 1.425-2.85c3.575-8.006 6.193-16.84 16.35-17.624h2.1l2.25.375" fill="#444492" fill-rule="evenodd"/><path d="M48.207 49.216l-1.5.675c-11.77 2.955-17.474-13.07-16.575-22.124l.15-1.575 1.125 1.426 1.275 1.275c5.296 5.542 10.133 5.127 16.35 8.55l.6.676.525.6c2.248 2.844 1.758 6.746-.525 9.375l-.825.526-.6.6" fill="#acb317" fill-rule="evenodd"/><text transform="matrix(1.25 0 0 1.25 -144 190.31)"><tspan x="0" y="0" style="-inkscape-font-specification:SymbolMT" font-size="12" fill="#444492" font-family="Symbol"></tspan></text><text transform="matrix(1.25 0 0 1.25 -144 208.54)"><tspan x="0" y="0" style="-inkscape-font-specification:SymbolMT" font-size="12" fill="#444492" font-family="Symbol"></tspan></text><text transform="matrix(1.25 0 0 1.25 -144 226.76)"><tspan x="0" y="0" style="-inkscape-font-specification:SymbolMT" font-size="12" fill="#444492" font-family="Symbol"></tspan></text><text transform="matrix(1.25 0 0 1.25 -144 245.06)"><tspan x="0" y="0" style="-inkscape-font-specification:SymbolMT" font-size="12" fill="#444492" font-family="Symbol"></tspan></text><text transform="matrix(1.25 0 0 1.25 -144 643.01)"><tspan x="0" y="0" style="-inkscape-font-specification:SymbolMT" font-size="10.98" fill="#c1c1c1" font-family="Symbol"></tspan></text><text transform="matrix(1.25 0 0 1.25 -144 659.74)"><tspan x="0" y="0" style="-inkscape-font-specification:SymbolMT" font-size="10.98" fill="#c1c1c1" font-family="Symbol"></tspan></text><text transform="matrix(1.25 0 0 1.25 -144 676.46)"><tspan x="0" y="0" style="-inkscape-font-specification:SymbolMT" font-size="10.98" fill="#c1c1c1" font-family="Symbol"></tspan></text><text transform="matrix(1.25 0 0 1.25 -144 693.26)"><tspan x="0" y="0" style="-inkscape-font-specification:SymbolMT" font-size="10.98" fill="#c1c1c1" font-family="Symbol"></tspan></text><text transform="matrix(1.25 0 0 1.25 -144 709.99)"><tspan x="0" y="0" style="-inkscape-font-specification:SymbolMT" font-size="10.98" fill="#c1c1c1" font-family="Symbol"></tspan></text><text transform="matrix(1.25 0 0 1.25 -144 726.71)"><tspan x="0" y="0" style="-inkscape-font-specification:SymbolMT" font-size="10.98" fill="#c1c1c1" font-family="Symbol"></tspan></text><text transform="matrix(1.25 0 0 1.25 -144 743.44)"><tspan x="0" y="0" style="-inkscape-font-specification:SymbolMT" font-size="10.98" fill="#c1c1c1" font-family="Symbol"></tspan></text><text transform="matrix(1.25 0 0 1.25 -144 760.16)"><tspan x="0" y="0" style="-inkscape-font-specification:SymbolMT" font-size="10.98" fill="#c1c1c1" font-family="Symbol"></tspan></text><text transform="matrix(1.25 0 0 1.25 -144 776.89)"><tspan x="0" y="0" style="-inkscape-font-specification:SymbolMT" font-size="10.98" fill="#c1c1c1" font-family="Symbol"></tspan></text><text transform="matrix(1.25 0 0 1.25 -144 793.69)"><tspan x="0" y="0" style="-inkscape-font-specification:SymbolMT" font-size="10.98" fill="#c1c1c1" font-family="Symbol"></tspan></text><text transform="matrix(1.25 0 0 1.25 -144 810.41)"><tspan x="0" y="0" style="-inkscape-font-specification:SymbolMT" font-size="10.98" fill="#c1c1c1" font-family="Symbol"></tspan></text><text transform="matrix(1.25 0 0 1.25 -144 827.14)"><tspan x="0" y="0" style="-inkscape-font-specification:SymbolMT" font-size="10.98" fill="#c1c1c1" font-family="Symbol"></tspan></text><text transform="matrix(1.25 0 0 1.25 -144 843.86)"><tspan x="0" y="0" style="-inkscape-font-specification:SymbolMT" font-size="10.98" fill="#c1c1c1" font-family="Symbol"></tspan></text><text transform="matrix(1.25 0 0 1.25 -144 860.59)"><tspan x="0" y="0" style="-inkscape-font-specification:SymbolMT" font-size="10.98" fill="#c1c1c1" font-family="Symbol"></tspan></text><text transform="matrix(1.25 0 0 1.25 -144 877.31)"><tspan x="0" y="0" style="-inkscape-font-specification:SymbolMT" font-size="10.98" fill="#c1c1c1" font-family="Symbol"></tspan></text></svg>
