<svg version="1" xmlns="http://www.w3.org/2000/svg" width="329.333" height="329.333" viewBox="0 0 247.000000 247.000000"><path d="M1.9 11.7c-.3 3.7-.3 7.3.1 7.4.3 0 3.8.2 7.8.4 16 .7 21.8 4 24.9 14.3 1.7 5.3 1.8 12.4 1.8 90.7 0 81-.1 85.2-1.9 88.5-3.5 6.7-8 10.2-16.9 13.4-1.1.3-4.2.9-7 1.2-2.9.4-5.9.8-6.7 1-.8.1-2.1.3-2.7.3-.8.1-1.3 1.6-1.3 4v3.9h43.4c47.6.1 44.8.4 43.8-5.5-.3-1.7-1.2-2.3-3.1-2.4-1.4 0-3.5-.2-4.6-.4-1.1-.2-4-.7-6.5-1-13.4-2-22.4-8.9-25.5-19.6-1.7-6-1.8-11.7-1.9-91.2-.1-46.6.1-84.7.4-84.7.3 0 3 3.5 6 7.6 3 4.2 6.5 8.8 7.8 10.3 1.2 1.4 3.5 4.4 5 6.5 1.5 2.2 11.8 16.2 23 31C99 102.3 109 115.6 110 117c3 4.1 79.9 106.9 85.7 114.7 5.2 6.9 5.7 7.3 9.4 7.3h3.9v-95.8c.1-52.6.3-97.5.6-99.7.9-6.8 4.8-14.1 9.1-16.9 6.2-4.1 15.7-6.9 25.1-7.5 1.9-.1 2.2-.7 2.2-4.1v-4h-86v4.3c0 4.1.1 4.3 3.3 4.3 15.9.3 27.9 4.7 32.9 12.1 4 6.1 4.1 8.3 4.2 83.5.1 40.1-.1 72.8-.4 72.8-.3-.1-30.3-39.9-66.8-88.5L67 11H34.5c-17.9 0-32.5.3-32.6.7z"/></svg>